<svg width="1024" height="1024" viewBox="0 0 1024 1024" fill="none" xmlns="http://www.w3.org/2000/svg">
<rect width="1024" height="1024" fill="#F18D8D"/>
<rect width="1024" height="1024" fill="url(#paint0_linear_0_520)"/>
<path fill-rule="evenodd" clip-rule="evenodd" d="M162.386 335.464C219.567 157.714 305.158 152 511.5 152C710.466 152 872 313.615 872 512.68C872 711.746 710.466 873 511.5 873C312.534 873 151 711.746 151 512.68C151 481.542 154.966 451.335 162.386 422.51H224.842C215.92 450.974 211.083 481.271 211.083 512.68C211.083 678.593 345.7 813.247 511.5 813.247C677.33 813.247 811.917 678.593 811.917 512.68C811.917 346.797 677.33 212.113 511.5 212.113C434.949 212.113 399.063 229.44 372 251.106C361.096 259.836 351.623 269.27 341.5 278.559C329.666 289.418 316.942 300.079 300 309.184C271.436 324.536 230.881 335.464 162.386 335.464Z" fill="white"/>
<path fill-rule="evenodd" clip-rule="evenodd" d="M467.078 606.823C491.047 606.823 490.851 653.602 490.851 677.723C490.851 701.845 469.907 732 445.938 732C421.969 732 404.007 701.845 404.007 677.723C404.007 653.602 443.109 606.823 467.078 606.823ZM629.737 478.12C661.696 478.12 682 524.12 682 556.282C682 588.445 661.696 590.368 629.737 590.368C597.779 590.368 547.416 578.79 547.416 546.628C547.416 514.466 597.779 478.12 629.737 478.12ZM432.955 293C480.893 293 547.416 352.723 547.416 400.966C547.416 449.209 480.893 499.277 432.955 499.277C385.017 499.277 342 425.282 342 377.039C342 328.796 385.017 293 432.955 293Z" fill="white"/>
<defs>
<linearGradient id="paint0_linear_0_520" x1="512" y1="0" x2="512" y2="1024" gradientUnits="userSpaceOnUse">
<stop stop-color="#BF41B7"/>
</linearGradient>
</defs>
</svg>
